# AST/ASF file generated using VICON BodyLanguage
# -----------------------------------------------
:version 1.10
:name VICON
:units
  mass 1.0
  length 0.45
  angle deg
:documentation
   .ast/.asf automatically generated from VICON data using
   VICON BodyBuilder and BodyLanguage model FoxedUp or BRILLIANT.MOD
:root
   order TX TY TZ RX RY RZ
   axis XYZ
   position 0 0 0  
   orientation 0 0 0 
:bonedata
  begin
     id 1 
     name lhipjoint
     direction 0.646657 -0.683706 0.338203 
     length 2.4948 
     axis 0 0 0  XYZ
  end
  begin
     id 2 
     name lfemur
     direction 0.34202 -0.939693 0  
     length 6.79491  
     axis 0 0 20  XYZ
    dof rx ry rz
    limits (-160.0 20.0)
           (-70.0 70.0)
           (-60.0 70.0)
  end
  begin
     id 3 
     name ltibia
     direction 0.34202 -0.939693 0   
     length 7.56807   
     axis 0 0 20   XYZ
    dof rx
    limits (-10.0 170.0)
  end
  begin
     id 4 
     name lfoot
     direction 0.0679796 -0.186772 0.980048   
     length 2.53018   
     axis -90 7.62852e-016 20   XYZ
    dof rx rz
    limits (-45.0 90.0)
           (-70.0 20.0)
  end
  begin
     id 5 
     name ltoes
     direction 1.53625e-011 -4.21881e-011 1   
     length 1.26912   
     axis -90 7.62852e-016 20   XYZ
    dof rx
    limits (-90.0 20.0)
  end
  begin
     id 6 
     name rhipjoint
     direction -0.618868 -0.704065 0.348274   
     length 2.42265  
     axis 0 0 0  XYZ 
  end
  begin
     id 7 
     name rfemur
     direction -0.34202 -0.939693 0   
     length 6.73814   
     axis 0 0 -20   XYZ
    dof rx ry rz
    limits (-160.0 20.0)
           (-70.0 70.0)
           (-70.0 60.0)
  end
  begin
     id 8 
     name rtibia
     direction -0.34202 -0.939693 0   
     length 7.66799   
     axis 0 0 -20   XYZ
    dof rx
    limits (-10.0 170.0)
 end
 begin
     id 9 
     name rfoot
     direction -0.0727352 -0.199838 0.977125   
     length 2.57224  
     axis -90 -7.62852e-016 -20   XYZ
    dof rx rz
    limits (-45.0 90.0)
           (-20.0 70.0)
  end
  begin
     id 10 
     name rtoes
     direction -1.53501e-011 -4.21858e-011 1   
     length 1.28858   
     axis -90 -7.62852e-016 -20   XYZ
    dof rx
    limits (-90.0 20.0)
  end
  begin
     id 11 
     name lowerback
     direction -0.0172471 0.995767 -0.0902851   
     length 2.20206   
     axis 0 0 0   XYZ
    dof rx ry rz
    limits (-20.0 45.0)
           (-30.0 30.0)
           (-30.0 30.0)
  end
  begin
     id 12 
     name upperback
     direction -0.000110737 0.999714 0.0239043   
     length 2.19523   
     axis 0 0 0   XYZ
    dof rx ry rz
    limits (-20.0 45.0)
           (-30.0 30.0)
           (-30.0 30.0)
  end
  begin
     id 13 
     name thorax
     direction 0.00704869 0.997783 0.0661741   
     length 2.21977   
     axis 0 0 0   XYZ
    dof rx ry rz
    limits (-20.0 45.0)
           (-30.0 30.0)
           (-30.0 30.0)
  end
  begin
     id 14 
     name lowerneck
     direction -0.00407501 0.995527 0.0943846   
     length 1.83142   
     axis 0 0 0   XYZ
    dof rx ry rz
    limits (-20.0 45.0)
           (-30.0 30.0)
           (-30.0 30.0)
  end
  begin
     id 15 
     name upperneck
     direction 0.0640586 0.986486 -0.150807   
     length 1.84616   
     axis 0 0 0   XYZ
    dof rx ry rz
    limits (-20.0 45.0)
           (-30.0 30.0)
           (-30.0 30.0)
  end
  begin
     id 16
     name head
     direction 0.0188017 0.99791 -0.0618239  
     length 1.85932  
     axis 0 0 0   XYZ
    dof rx ry rz
    limits (-20.0 45.0)
           (-30.0 30.0)
           (-30.0 30.0)
  end
  begin
     id 17 
     name lclavicle
     direction 0.976074 0.206905 0.066852  
     length 3.81043  
     axis 0 0 0   XYZ
    dof ry rz
    limits (-20.0 10.0)
           (0.0 20.0)
  end
  begin
     id 18 
     name lhumerus
     direction 1 -4.48971e-011 1.86916e-027   
     length 5.37587   
     axis 180 -30 -90   XYZ
    dof rx ry rz
    limits (-60.0 90.0)
           (-90.0 90.0)
           (-90.0 90.0)
  end
  begin
     id 19
     name lradius
     direction 1 -4.48968e-011 1.69187e-027   
     length 3.35977   
     axis 180 -30 -90   XYZ
    dof rx
    limits (-10.0 170.0)
  end
  begin
     id 20
     name lwrist
     direction 1 -4.48968e-011 5.8978e-027   
     length 1.67988   
     axis -3.27506e-015 90 90   XYZ
    dof ry
    limits (-180.0 0.0)
 end
  begin
     id 21 
     name lhand
     direction 1 -4.49028e-011 1.18071e-026   
     length 0.561859   
     axis -7.52654e-015 90 90   XYZ
    dof rx rz
    limits (-90.0 90.0)
           (-45.0 45.0)
  end
  begin
     id 22 
     name lfingers
     direction 1 -4.48927e-011 2.35758e-026   
     length 0.452985   
     axis -1.50534e-014 90 90   XYZ
    dof rx
    limits (0.0 90.0)
  end
  begin
     id 23
     name lthumb
     direction 0.707107 -6.34898e-011 0.707107   
     length 0.650399   
     axis -90 45 5.69224e-014   XYZ
    dof rx rz
    limits (-45.0 45.0)
           (-45.0 45.0)
  end
  begin
     id 24 
     name rclavicle
     direction -0.988403 0.151789 0.00439714   
     length 3.6942  
     axis 0 0 0   XYZ 
    dof ry rz
    limits (-10.0 20.0)
           (-20.0 0.0)
  end
  begin
     id 25 
     name rhumerus
     direction -1 -4.48978e-011 1.62495e-027  
     length 5.22819   
     axis 180 30 90   XYZ
    dof rx ry rz
    limits (-90.0 60.0)
           (-90.0 90.0)
           (-90.0 90.0)
  end
  begin
     id 26 
     name rradius
     direction -1 -4.48961e-011 3.47796e-027   
     length 3.40764   
     axis 180 30 90   XYZ
    dof rx
    limits (-10.0 170.0)
  end
  begin
     id 27 
     name rwrist
     direction -1 -4.48949e-011 5.89602e-027   
     length 1.70382   
     axis -3.27506e-015 -90 -90   XYZ
    dof ry
    limits (-180.0 0.0)
  end
  begin
     id 28
     name rhand
     direction -1 -4.48977e-011 1.17973e-026   
     length 0.583255   
     axis -7.52654e-015 -90 -90   XYZ
    dof rx rz
    limits (-90.0 90.0)
           (-45.0 45.0)
  end
  begin
     id 29
     name rfingers
     direction -1 -4.49099e-011 2.36408e-026   
     length 0.470235   
     axis -1.50534e-014 -90 -90   XYZ
    dof rx
    limits (0.0 90.0)
  end
  begin
     id 30
     name rthumb
     direction -0.707107 -6.35011e-011 0.707107   
     length 0.675167   
     axis -90 -45 -5.69224e-014   XYZ
    dof rx rz
    limits (-45.0 45.0)
           (-45.0 45.0)
  end
:hierarchy
  begin
    root lhipjoint rhipjoint lowerback
    lhipjoint lfemur
    lfemur ltibia
    ltibia lfoot
    lfoot ltoes
    rhipjoint rfemur
    rfemur rtibia
    rtibia rfoot
    rfoot rtoes
    lowerback upperback
    upperback thorax
    thorax lowerneck lclavicle rclavicle
    lowerneck upperneck
    upperneck head
    lclavicle lhumerus
    lhumerus lradius
    lradius lwrist
    lwrist lhand lthumb
    lhand lfingers
    rclavicle rhumerus
    rhumerus rradius
    rradius rwrist
    rwrist rhand rthumb
    rhand rfingers
  end

#!OML:ASF G:\JayActor3\Patient Classification 1\Patient 1\Session 2\male.ASF
:FULLY-SPECIFIED
:DEGREES
840
root 5.00079 16.9992 -6.89693 1092.24 -81.3879 -1090.62
lowerback -0.564121 0.440625 2.79847
upperback 4.79061 0.345113 1.45914
thorax 5.28081 0.222542 -0.041047
lowerneck -11.2813 -3.28165 -2.42234
upperneck 6.91379 -4.92139 8.55007
head 4.19187 -2.04825 2.67739
rclavicle 9.0447e-015 1.19271e-015
rhumerus -19.407 1.71674 -89.1763
rradius 26.783
rwrist -3.1055
rhand -21.6522 4.60212
rfingers 7.12502
rthumb 4.74461 -25.3248
lclavicle 9.0447e-015 1.19271e-015
lhumerus -30.1778 2.55275 89.8876
lradius 35.0974
lwrist 11.4462
lhand -18.9075 15.2357
lfingers 7.12502
lthumb 7.39447 45.0865
rfemur -2.40134 -0.677916 28.2529
rtibia 24.8926
rfoot -24.6245 -10.335
rtoes 18.0563
lfemur -30.0105 1.82266 -20.5826
ltibia 32.0259
lfoot -11.3821 8.74456
ltoes -16.8111
841
root 4.9234 16.9958 -6.88988 1092.76 -81.4111 -1091.09
lowerback -0.586221 0.442647 2.82476
upperback 4.79216 0.346073 1.45657
thorax 5.29544 0.224371 -0.0581458
lowerneck -11.2712 -3.26533 -2.40358
upperneck 6.8002 -4.88925 8.51005
head 4.15211 -2.0371 2.66481
rclavicle -1.2424e-014 -7.95139e-016
rhumerus -19.5106 1.83859 -89.289
rradius 26.8745
rwrist -3.17887
rhand -21.6503 4.60964
rfingers 7.12502
rthumb 4.74646 -25.3172
lclavicle -1.2424e-014 -7.95139e-016
lhumerus -30.1807 2.62843 89.8323
lradius 34.8544
lwrist 11.3525
lhand -18.9008 15.2447
lfingers 7.12502
lthumb 7.40088 45.0953
rfemur -1.98637 -0.692563 28.3254
rtibia 24.5573
rfoot -24.6433 -10.2565
rtoes 17.9085
lfemur -30.1318 1.88416 -20.6417
ltibia 31.2067
lfoot -11.2551 8.53454
ltoes -16.9839
842
root 4.84548 16.9915 -6.88236 1093.34 -81.4398 -1091.61
lowerback -0.612591 0.446144 2.85344
upperback 4.79451 0.348461 1.45804
thorax 5.31339 0.226926 -0.0722742
lowerneck -11.2656 -3.24554 -2.38859
upperneck 6.68834 -4.85202 8.46959
head 4.11344 -2.02338 2.65303
rclavicle -1.31198e-014 4.37326e-015
rhumerus -19.6253 1.96327 -89.3944
rradius 26.9617
rwrist -3.26434
rhand -21.6535 4.6141
rfingers 7.12502
rthumb 4.74335 -25.3128
lclavicle -1.31198e-014 4.37326e-015
lhumerus -30.1794 2.72383 89.7703
lradius 34.5887
lwrist 11.2504
lhand -18.8951 15.2645
lfingers 7.12502
lthumb 7.4064 45.1149
rfemur -1.58402 -0.705335 28.4028
rtibia 24.243
rfoot -24.6601 -10.1601
rtoes 17.7701
lfemur -30.2439 1.9485 -20.6883
ltibia 30.4314
lfoot -11.1264 8.2691
ltoes -17.1065
843
root 4.76709 16.9863 -6.87419 1094.01 -81.4788 -1092.22
lowerback -0.634451 0.453248 2.89172
upperback 4.79409 0.355515 1.46094
thorax 5.32608 0.232116 -0.0901037
lowerneck -11.2627 -3.22311 -2.37369
upperneck 6.58178 -4.81137 8.42601
head 4.07659 -2.00791 2.64051
rclavicle -1.2921e-014 3.18055e-015
rhumerus -19.7543 2.07234 -89.4927
rradius 27.0384
rwrist -3.3403
rhand -21.6573 4.62978
rfingers 7.12502
rthumb 4.73966 -25.2972
lclavicle -1.2921e-014 3.18055e-015
lhumerus -30.182 2.82843 89.7016
lradius 34.3057
lwrist 11.1508
lhand -18.9014 15.2997
lfingers 7.12502
lthumb 7.40029 45.1502
rfemur -1.19464 -0.711488 28.4857
rtibia 23.9552
rfoot -24.6774 -10.0482
rtoes 17.6321
lfemur -30.3431 2.01882 -20.7198
ltibia 29.6989
lfoot -10.9904 7.95369
ltoes -17.2009
844
root 4.68821 16.9803 -6.86551 1094.76 -81.5306 -1092.92
lowerback -0.652733 0.464215 2.93493
upperback 4.79198 0.367587 1.46645
thorax 5.33512 0.23989 -0.107764
lowerneck -11.2656 -3.19849 -2.36033
upperneck 6.4805 -4.76749 8.37761
head 4.04205 -1.99082 2.62691
rclavicle 5.86415e-015 -2.3059e-014
rhumerus -19.8959 2.15263 -89.5807
rradius 27.1052
rwrist -3.39234
rhand -21.658 4.64785
rfingers 7.12502
rthumb 4.73904 -25.2791
lclavicle 5.86415e-015 -2.3059e-014
lhumerus -30.1813 2.95463 89.6248
lradius 33.9951
lwrist 11.0423
lhand -18.9071 15.3437
lfingers 7.12502
lthumb 7.39487 45.1945
rfemur -0.820517 -0.707343 28.5737
rtibia 23.6973
rfoot -24.6952 -9.92696
rtoes 17.4997
lfemur -30.426 2.09598 -20.7364
ltibia 29.0055
lfoot -10.8541 7.58536
ltoes -17.2281
845
root 4.60873 16.9736 -6.8562 1095.56 -81.6013 -1093.67
lowerback -0.668097 0.480176 2.97854
upperback 4.78916 0.386449 1.47173
thorax 5.34194 0.251026 -0.125534
lowerneck -11.268 -3.17011 -2.34544
upperneck 6.37885 -4.71824 8.32326
head 4.00686 -1.97133 2.61163
rclavicle -5.26779e-015 8.34896e-015
rhumerus -20.0482 2.20509 -89.6593
rradius 27.1574
rwrist -3.41716
rhand -21.6607 4.67663
rfingers 7.12502
rthumb 4.73641 -25.2504
lclavicle -5.26779e-015 8.34896e-015
lhumerus -30.1847 3.09194 89.5419
lradius 33.6688
lwrist 10.9338
lhand -18.9175 15.3919
lfingers 7.12502
lthumb 7.38475 45.243
rfemur -0.459934 -0.68425 28.6604
rtibia 23.471
rfoot -24.7131 -9.80433
rtoes 17.3523
lfemur -30.4866 2.17579 -20.742
ltibia 28.3474
lfoot -10.7191 7.16884
ltoes -17.1854
846
root 4.52857 16.9665 -6.84626 1096.41 -81.6924 -1094.46
lowerback -0.681811 0.500893 3.01917
upperback 4.78549 0.411952 1.47554
thorax 5.3471 0.265352 -0.142816
lowerneck -11.273 -3.13949 -2.32552
upperneck 6.28059 -4.66621 8.26006
head 3.97265 -1.95061 2.59296
rclavicle 1.33186e-014 1.07344e-014
rhumerus -20.2053 2.22998 -89.729
rradius 27.1889
rwrist -3.41465
rhand -21.6626 4.70817
rfingers 7.12502
rthumb 4.73457 -25.2189
lclavicle 1.33186e-014 1.07344e-014
lhumerus -30.1919 3.2485 89.449
lradius 33.3256
lwrist 10.8154
lhand -18.9334 15.4319
lfingers 7.12502
lthumb 7.36944 45.2835
rfemur -0.113389 -0.637602 28.7433
rtibia 23.2759
rfoot -24.7316 -9.68525
rtoes 17.1742
lfemur -30.522 2.25089 -20.7369
ltibia 27.7195
lfoot -10.5796 6.72255
ltoes -17.116
847
root 4.44766 16.9589 -6.83562 1097.28 -81.8068 -1095.27
lowerback -0.693066 0.526163 3.0517
upperback 4.78158 0.444128 1.47599
thorax 5.35071 0.282719 -0.158705
lowerneck -11.2768 -3.10491 -2.29869
upperneck 6.18251 -4.60893 8.18593
head 3.93761 -1.92766 2.5702
rclavicle 3.97569e-014 -1.07344e-014
rhumerus -20.3655 2.23183 -89.7915
rradius 27.1948
rwrist -3.39037
rhand -21.6762 4.75028
rfingers 7.12502
rthumb 4.72143 -25.1771
lclavicle 3.97569e-014 -1.07344e-014
lhumerus -30.2031 3.42352 89.3455
lradius 32.9646
lwrist 10.6862
lhand -18.95 15.4527
lfingers 7.12502
lthumb 7.35341 45.3049
rfemur 0.221969 -0.565538 28.8164
rtibia 23.1104
rfoot -24.7491 -9.56767
rtoes 16.9814
lfemur -30.5258 2.30873 -20.7209
ltibia 27.1176
lfoot -10.4363 6.26595
ltoes -17.033
848
root 4.36578 16.9511 -6.82427 1098.15 -81.9447 -1096.08
lowerback -0.705314 0.554821 3.07387
upperback 4.78035 0.481269 1.47211
thorax 5.35776 0.302259 -0.172985
lowerneck -11.284 -3.06515 -2.26731
upperneck 6.0885 -4.54521 8.10543
head 3.90383 -1.90152 2.54515
rclavicle 3.35946e-014 -3.57812e-015
rhumerus -20.5226 2.21828 -89.8489
rradius 27.1723
rwrist -3.34607
rhand -21.7028 4.79394
rfingers 7.12502
rthumb 4.69572 -25.134
lclavicle 3.35946e-014 -3.57812e-015
lhumerus -30.2216 3.60943 89.2326
lradius 32.5944
lwrist 10.5524
lhand -18.962 15.4691
lfingers 7.12502
lthumb 7.34183 45.3217
rfemur 0.550027 -0.473834 28.8766
rtibia 22.9728
rfoot -24.7642 -9.44827
rtoes 16.769
lfemur -30.4924 2.33713 -20.6919
ltibia 26.5388
lfoot -10.2899 5.83175
ltoes -16.9987
849
root 4.28282 16.9431 -6.81212 1099.03 -82.1058 -1096.91
lowerback -0.721484 0.586577 3.08671
upperback 4.78059 0.522995 1.46252
thorax 5.36866 0.323886 -0.187644
lowerneck -11.2924 -3.01971 -2.22642
upperneck 5.99751 -4.47464 8.01428
head 3.8704 -1.87218 2.51574
rclavicle 8.39865e-015 -6.75868e-015
rhumerus -20.6738 2.19471 -89.9027
rradius 27.1138
rwrist -3.28815
rhand -21.7369 4.84996
rfingers 7.12502
rthumb 4.66282 -25.0787
lclavicle 8.39865e-015 -6.75868e-015
lhumerus -30.2473 3.80437 89.1082
lradius 32.2133
lwrist 10.4135
lhand -18.973 15.4753
lfingers 7.12502
lthumb 7.33119 45.3282
rfemur 0.869171 -0.362502 28.9229
rtibia 22.8619
rfoot -24.7785 -9.32699
rtoes 16.5405
lfemur -30.4208 2.32196 -20.6436
ltibia 25.9832
lfoot -10.1542 5.43964
ltoes -16.9563
850
root 4.19866 16.935 -6.79914 1099.92 -82.2879 -1097.75
lowerback -0.747099 0.619165 3.08825
upperback 4.78484 0.565927 1.44838
thorax 5.38913 0.345864 -0.200457
lowerneck -11.3012 -2.96575 -2.18364
upperneck 5.90768 -4.39287 7.91974
head 3.83678 -1.83738 2.48575
rclavicle 2.60905e-014 -3.57812e-015
rhumerus -20.815 2.16334 -89.9511
rradius 27.0128
rwrist -3.21976
rhand -21.7721 4.9517
rfingers 7.12502
rthumb 4.6288 -24.9777
lclavicle 2.60905e-014 -3.57812e-015
lhumerus -30.2773 4.01072 88.9736
lradius 31.8183
lwrist 10.2687
lhand -18.9786 15.4777
lfingers 7.12502
lthumb 7.32585 45.3308
rfemur 1.18082 -0.239827 28.9534
rtibia 22.7767
rfoot -24.7958 -9.1968
rtoes 16.3087
lfemur -30.3106 2.2584 -20.5759
ltibia 25.4525
lfoot -10.0338 5.10876
ltoes -16.9307
